<svg xmlns="http://www.w3.org/2000/svg" viewBox="0 0 818.044 193.1265"><defs><style>.cls-1{isolation:isolate;}.cls-2{fill:#fff000;}.cls-2,.cls-3,.cls-4{mix-blend-mode:multiply;}.cls-3{fill:#009fe6;}.cls-4{fill:#c2007b;}.cls-5{fill:#251e1c;}</style></defs><title>hatidori-logo_02</title><g class="cls-1"><g id="レイヤー_1" data-name="レイヤー 1"><path class="cls-2" d="M265.9623,187.6636s-42.2747-81.85-56.0111-44.5C178.24,229.3886,228.52,309.4085,305.0523,323.1c0,0,49.0015,2.8264,54.527-49.5951C368.375,190.0578,265.9623,187.6636,265.9623,187.6636Z" transform="translate(-200.3036 -133.4004)"/><path class="cls-3" d="M567.002,206.0946c-5.9527-.9909-81.5331-4.4756-93.2983-5.5895-19.38-1.8349-32.2532-38.5127-68.6235-38.5127-30.2237,0-41.352,15.15-65.0424,42.5769-26.9469,31.1976-48.4412,36.0246-70.6542,41.0888-32.3621,7.3781-59.762-.6577-59.762-.6577,25.8667,61.8139,79.6949,80.6806,124.2431,80.6806,30.7826,0,70.5084-16.6238,85.2244-33.2864,21.8395-24.7277,23.8672-41.7835,30.1038-56.8151,5.7041-13.75,11.7308-18.1719,25.0468-23.0843,15.0334-6.464,94.5678-5.6794,94.5678-5.6794S568.6013,206.3591,567.002,206.0946ZM426.366,202.219a7.2778,7.2778,0,1,1,7.2787-7.2787A7.2779,7.2779,0,0,1,426.366,202.219Z" transform="translate(-200.3036 -133.4004)"/><path class="cls-4" d="M207.1637,151.3993s-15.4979,40.94.7546,89.0677c12.8064,37.923,46.1082,69.1554,86.41,80.4479,37.976,10.6409,56.69-19.2971,60.2124-27.1253a53.4417,53.4417,0,0,0,3.4691-35.5168c-2.9358-12.6574-11.075-31.7726-47.0705-42.7914-43.3983-13.2849-56.8541-19.13-82.58-40.2051C217.3558,166.262,207.1637,151.3993,207.1637,151.3993Z" transform="translate(-200.3036 -133.4004)"/><path class="cls-4" d="M209.6216,245s15.9053,40.7836,60.2041,65.6437c34.906,19.589,80.5533,20.4844,118.0465,1.8834,35.33-17.5276,29.18-52.2936,26.5543-60.4664A53.4417,53.4417,0,0,0,393.2193,223.36c-10.6563-7.4345-29.5016-16.1806-63.6134-.26-41.1273,19.1949-55.035,23.8643-88.2535,25.4394C227.1438,249.2137,209.6216,245,209.6216,245Z" transform="translate(-200.3036 -133.4004)"/><path class="cls-5" d="M773.1112,311.5287c-21.5192-13.3179-41.23-35.4614-52.2095-52.4146-12.0795-18.335-18.6658-40.3-20.6433-65.5542l7.9059-3.1152c2.1954-.8643,3.2941-1.9019,3.2941-2.9395,0-1.5576-3.515-4.4971-10.98-9.1675a3.8571,3.8571,0,0,0-4.8315.3442L688.4,185.7768H640.95a1.7188,1.7188,0,0,0-1.8872,1.4722v.32a1.7188,1.7188,0,0,0,1.8872,1.4746h28.3136c10.2911.0684,20.5627.022,24.3054,0h1.568c3.4509,51.9434,26.5918,105.02,67.2144,132.3437a3.511,3.511,0,0,0,4.8322-.6885,55.2013,55.2013,0,0,1,5.9277-5.3638C774.8684,314.1239,775.0887,312.913,773.1112,311.5287Z" transform="translate(-200.3036 -133.4004)"/><path class="cls-5" d="M644.4827,219.1581q9.223-1.8164,9.2224-4.15c0-2.2485.3662-4.67-11.9336-6.7456-2.4158-.52-3.9526.3442-4.17,2.0752-2.8571,18.6816-7.2479,34.5947-13.1757,48.2593C615.2,279.351,600.9292,297.1684,581.6024,311.7c-1.7542,1.3843-.6848,2.9395,1.0345,1.8408,18.3-11.6943,28.0273-20.8691,37.9083-35.2246C630.646,263.4379,638.5519,243.7211,644.4827,219.1581Z" transform="translate(-200.3036 -133.4004)"/><circle class="cls-5" cx="692.0554" cy="163.0742" r="8.7743"/><circle class="cls-5" cx="722.4936" cy="163.0742" r="8.7743"/><path class="cls-5" d="M1016.284,247.2216H883.5851V232.4023h87.4a2.9553,2.9553,0,0,0,2.9559-2.9541V196.687l3.7512-2.8589a3.6806,3.6806,0,0,0,1.6071-2.5c0-1.25-2.6825-4.2822-8.2153-8.7451-1.6064-1.25-3.0383-1.0693-4.1071.3564l-4.82,6.0693H884.8351c-2.5006-1.25-5.3577-2.5-8.5712-3.9258-1.9629-.8936-3.2129,0-3.2129,2.146v87.4927c0,1.9629.8942,2.8564,2.6752,2.8564h5.0018a2.5478,2.5478,0,0,0,2.8571-2.8564V251.5087h132.699a1.8793,1.8793,0,0,0,2.0636-1.6113V248.833A1.8793,1.8793,0,0,0,1016.284,247.2216Zm-132.699-53.7476h80.1782v14.6411H883.5851Zm0,19.104h80.1782v15.5371H883.5851Z" transform="translate(-200.3036 -133.4004)"/><circle class="cls-5" cx="722.5673" cy="32.7611" r="9.4934"/><circle class="cls-5" cx="750.3176" cy="163.0742" r="8.7744"/><path class="cls-5" d="M1007.1233,260.2612a2.429,2.429,0,0,0-3.9331.3564l-4.9939,5.7129H903.1969a2.0385,2.0385,0,0,0-2.0636,2.0142v.437a2.04,2.04,0,0,0,2.0636,2.0142h96.2494c-.3632,14.2847-2.1442,25.53-5.7141,33.5645-2.1442,5.54-6.0773,8.2129-11.4276,8.2129a137.0461,137.0461,0,0,1-21.6132-1.78c-1.9629-.3564-3.0316.3564-3.0316,1.78a2.9192,2.9192,0,0,0,2.5006,3.04c8.3893,1.79,13.9288,3.396,16.43,4.646a7.8975,7.8975,0,0,1,3.7439,3.9258c.72,1.6064,1.4319,2.5,3.0389,2.3193a22.7488,22.7488,0,0,0,11.9659-3.9258c8.0328-5.7153,12.8528-21.9629,14.2853-48.396l4.2816-3.03a2.862,2.862,0,0,0,1.6064-2.3193C1015.5125,267.583,1012.6555,264.7241,1007.1233,260.2612Z" transform="translate(-200.3036 -133.4004)"/><path class="cls-5" d="M827.7232,294.9658c-4.19.6763-9.5947,5.5615-6.8585,11.8848A9.4741,9.4741,0,0,0,832.6433,312.2c9.632-3.64,28.87-24.3433,28.87-24.3433s-9.8547,3.2275-17.3816,4.856S832.62,294.1772,827.7232,294.9658Z" transform="translate(-200.3036 -133.4004)"/></g></g></svg>